<?xml version="1.0" standalone="no"?>
<!DOCTYPE svg PUBLIC "-//W3C//DTD SVG 20010904//EN"
 "http://www.w3.org/TR/2001/REC-SVG-20010904/DTD/svg10.dtd">
<svg version="1.0" xmlns="http://www.w3.org/2000/svg"
 width="866.000000pt" height="1323.000000pt" viewBox="0 0 866.000000 1323.000000"
 preserveAspectRatio="xMidYMid meet">

<g transform="translate(0.000000,1323.000000) scale(0.100000,-0.100000)"
fill="#000000" stroke="none">
<path d="M6697 12982 c-82 -141 -153 -372 -169 -547 -5 -60 -14 -114 -20 -120
-6 -7 -19 1 -39 23 -33 37 -34 36 -118 -21 l-44 -30 -51 25 c-28 14 -65 28
-83 32 -29 7 -34 3 -82 -56 -28 -35 -75 -110 -104 -167 -46 -91 -60 -110 -114
-153 -59 -47 -63 -53 -63 -91 0 -37 -6 -46 -69 -106 l-69 -66 -6 -71 c-5 -63
-4 -73 14 -89 16 -14 20 -31 20 -79 0 -34 5 -100 10 -146 9 -77 13 -88 42
-112 29 -25 30 -30 24 -75 -4 -34 -13 -53 -28 -63 -61 -42 -60 -38 -44 -120
10 -57 19 -79 39 -95 25 -20 25 -21 12 -80 -34 -160 -44 -215 -49 -276 -8 -81
-20 -126 -42 -150 -15 -17 -15 -25 0 -116 15 -88 26 -138 57 -255 8 -32 14
-38 52 -46 23 -5 49 -13 58 -16 12 -5 21 5 37 42 24 54 48 71 66 47 10 -15 20
-12 86 19 40 20 90 49 110 65 43 34 103 56 181 66 44 5 59 12 66 29 6 12 8 80
5 156 -4 121 -1 148 23 255 15 66 38 149 52 185 40 107 41 98 -16 122 l-51 22
0 97 c0 104 20 191 67 283 19 37 33 52 63 63 43 17 130 126 130 162 0 24 123
157 218 236 33 27 59 52 57 55 -2 4 -31 15 -65 25 -33 10 -65 24 -71 32 -15
18 17 185 42 217 10 13 42 31 72 40 48 15 55 20 63 53 8 32 14 38 56 50 41 12
51 20 92 84 25 39 53 92 62 116 20 53 26 39 -79 189 l-69 97 30 57 c21 41 27
62 20 74 -5 9 -6 20 -3 26 7 11 -69 51 -200 105 -150 62 -140 62 -178 -3z"/>
<path d="M7264 12483 c-16 -3 -24 -16 -33 -58 -7 -30 -17 -57 -22 -60 -5 -4
-34 -40 -64 -80 -47 -63 -60 -75 -92 -81 -59 -11 -73 -21 -73 -57 0 -45 -9
-54 -61 -62 -25 -4 -51 -10 -58 -14 -13 -8 -36 -124 -28 -144 3 -6 35 -27 71
-46 61 -32 67 -34 93 -20 15 8 45 38 67 67 23 30 64 79 92 110 l51 56 57 -13
c52 -12 56 -14 56 -42 0 -29 1 -29 58 -29 53 0 61 3 90 33 18 18 32 36 32 40
0 3 -11 23 -25 43 -15 23 -25 51 -25 74 0 31 -4 38 -34 52 -32 16 -35 22 -61
127 -29 119 -27 117 -91 104z"/>
<path d="M5727 11870 c-14 -20 -18 -20 -318 -10 -167 6 -372 13 -455 17 l-151
6 4 -59 c5 -64 24 -180 47 -287 11 -52 26 -83 64 -135 27 -37 52 -72 55 -78 3
-6 -11 -64 -32 -130 -36 -110 -41 -120 -72 -135 -19 -9 -46 -20 -60 -23 -23
-5 -29 -1 -39 25 -7 17 -23 36 -34 44 -24 15 -224 31 -343 27 -78 -2 -83 -1
-98 22 -13 20 -28 26 -73 31 -98 11 -149 26 -204 60 -48 31 -53 37 -58 77 -4
37 -10 45 -45 65 -22 13 -45 23 -51 23 -6 0 -14 -19 -18 -41 -4 -25 -20 -58
-40 -83 -46 -57 -51 -77 -26 -123 16 -30 20 -56 20 -124 0 -73 3 -89 20 -104
11 -10 25 -35 30 -56 13 -47 28 -63 92 -95 48 -25 51 -25 96 -10 25 9 62 16
82 16 33 0 39 -5 69 -56 33 -54 35 -55 75 -52 32 2 43 8 51 26 9 21 15 23 53
18 50 -7 142 -44 142 -58 0 -23 -35 -127 -57 -172 -14 -28 -50 -76 -81 -108
l-55 -58 25 -68 c77 -204 81 -218 76 -309 -3 -65 -1 -86 9 -90 18 -7 60 22 68
47 3 11 27 32 53 47 26 15 65 40 86 55 48 34 52 34 98 3 l38 -25 89 45 c50 24
95 53 100 64 6 10 18 61 27 113 8 51 26 133 39 183 22 87 24 91 61 107 21 9
73 21 117 28 71 10 80 10 91 -6 9 -12 20 -15 39 -10 33 8 34 24 5 94 -25 61
-19 72 43 72 32 0 117 12 178 26 21 4 23 2 17 -19 -7 -28 6 -42 45 -52 39 -10
84 46 93 115 7 49 5 55 -22 84 -23 24 -32 46 -41 105 l-12 74 36 45 c39 50 46
101 21 150 -8 16 -16 81 -20 161 -5 92 -11 140 -21 155 -37 51 -7 207 48 249
59 46 77 68 77 92 0 31 -33 34 -53 5z"/>
<path d="M3515 11574 c-99 -48 -183 -91 -187 -97 -3 -6 -11 -37 -17 -70 -6
-32 -24 -81 -41 -108 -16 -27 -30 -58 -30 -68 0 -10 -50 -81 -111 -157 -61
-76 -113 -143 -117 -150 -4 -6 -47 -33 -97 -60 -85 -47 -92 -53 -120 -109 -26
-52 -41 -68 -115 -118 -67 -46 -90 -56 -111 -52 -29 7 -162 -40 -260 -91 -30
-16 -62 -29 -71 -30 -10 -1 -43 -21 -74 -45 -30 -24 -63 -49 -71 -56 -18 -14
-22 -8 62 -108 27 -33 54 -63 58 -66 4 -3 3 -54 -2 -113 -12 -125 -4 -157 73
-279 76 -119 64 -111 164 -108 l87 2 71 -73 c39 -40 84 -93 101 -118 42 -61
67 -82 140 -114 l63 -27 67 20 c59 18 76 29 132 86 66 68 126 110 289 204 l97
56 -3 60 c-3 52 1 68 28 120 62 117 109 164 220 215 8 4 32 45 52 91 41 95 58
108 148 118 l55 6 3 90 3 90 71 69 c67 64 70 70 65 104 -9 49 -21 59 -57 44
-17 -7 -43 -17 -60 -24 -25 -10 -41 -9 -107 13 -65 21 -79 29 -83 50 -3 13
-12 35 -22 49 -20 31 -58 211 -58 278 0 46 -3 52 -37 78 -21 15 -39 28 -40 28
0 1 -4 18 -8 39 l-7 37 44 0 c44 0 45 1 91 70 26 39 47 75 47 81 0 13 -78 168
-102 202 -11 15 -25 27 -31 27 -7 0 -93 -39 -192 -86z"/>
<path d="M4291 10620 c-50 -57 -55 -60 -87 -54 -29 5 -44 0 -91 -31 l-56 -37
6 -103 6 -103 -31 -11 c-26 -9 -35 -8 -49 5 -16 14 -25 15 -69 4 -57 -14 -63
-23 -75 -105 -10 -66 -51 -111 -110 -119 -35 -6 -51 -15 -70 -40 -14 -18 -25
-36 -25 -39 0 -3 -24 -47 -54 -96 -30 -50 -53 -98 -52 -108 2 -9 16 -21 32
-25 16 -5 54 -21 83 -36 51 -25 56 -31 73 -82 10 -30 16 -67 13 -81 -4 -18 0
-31 15 -44 38 -34 26 -68 -50 -144 -38 -39 -70 -77 -70 -85 0 -8 16 -45 35
-82 40 -77 40 -75 -35 -153 l-42 -43 -56 7 c-32 4 -82 13 -112 21 -30 8 -62
14 -71 14 -25 0 -94 -150 -102 -220 -4 -30 -15 -93 -26 -138 -19 -82 -19 -84
0 -100 12 -11 19 -29 19 -53 0 -56 6 -64 83 -121 40 -28 86 -65 103 -81 l32
-29 75 100 75 99 89 6 c48 4 120 10 160 13 l71 7 22 -42 c18 -37 25 -42 51
-39 30 3 30 4 34 72 3 55 9 74 27 95 51 56 51 55 27 110 -17 41 -26 51 -45 51
-33 0 -30 16 12 77 37 54 102 102 169 127 22 7 84 34 138 59 96 45 97 46 97
81 0 41 8 46 110 81 55 19 76 21 114 14 26 -5 51 -11 56 -14 5 -3 32 4 59 16
51 21 71 19 71 -7 0 -27 52 -12 70 20 18 34 55 48 234 92 70 17 121 34 124 43
3 7 -5 44 -16 80 -12 37 -22 72 -22 78 0 10 107 56 233 99 137 47 306 166 311
220 0 10 -18 26 -50 43 -50 25 -51 28 -79 111 -15 46 -38 143 -51 215 l-23
130 40 35 39 35 0 82 c0 92 -1 94 -95 123 -22 7 -47 22 -57 33 -16 21 -17 21
-92 3 -78 -18 -87 -27 -61 -56 19 -21 30 -97 21 -144 -7 -34 -9 -36 -47 -36
-36 0 -42 3 -52 30 -13 35 -29 37 -122 14 -54 -14 -65 -20 -65 -38 -1 -73
-104 -321 -168 -403 -9 -12 -52 -38 -95 -58 l-78 -36 -38 30 -38 30 -96 -67
c-265 -186 -259 -183 -273 -171 -18 15 -18 39 2 68 10 14 14 33 10 52 -4 21 1
39 20 66 35 51 28 92 -35 218 -28 56 -54 121 -57 148 -6 44 -4 51 22 78 16 17
44 40 62 51 27 17 32 25 28 44 -5 20 -1 26 19 34 27 10 41 38 51 99 6 37 5 38
-35 54 -23 10 -47 17 -54 17 -7 0 -36 -27 -66 -60z"/>
<path d="M1950 10295 c-66 -19 -203 -71 -252 -96 -24 -12 -55 -24 -71 -25 -35
-5 -95 -35 -182 -94 -38 -26 -108 -72 -155 -103 -220 -145 -300 -203 -362
-264 l-68 -65 0 -66 c0 -61 -3 -69 -32 -99 l-32 -33 24 -50 c13 -28 30 -56 37
-62 8 -6 55 -21 106 -33 l91 -21 12 -104 c7 -58 16 -123 21 -145 l9 -40 69 2
c37 2 70 5 72 7 3 2 8 35 12 73 8 77 4 76 98 36 55 -23 62 -29 65 -56 3 -25
14 -36 68 -69 36 -21 73 -49 83 -61 10 -12 25 -30 32 -39 11 -13 29 -18 64
-18 37 0 53 5 60 18 9 14 10 10 11 -18 0 -61 13 -63 113 -14 50 24 98 44 108
44 26 0 101 29 118 46 42 40 349 213 424 239 53 18 57 18 75 2 27 -24 45 -22
168 22 l109 39 3 60 3 59 -38 6 c-21 4 -62 21 -92 39 -43 26 -57 41 -68 73
-14 42 -74 109 -133 150 -35 24 -38 25 -83 11 l-47 -14 -99 97 c-54 53 -107
112 -117 131 -21 42 -21 131 2 233 l16 67 -27 31 c-41 50 -130 119 -151 118
-10 0 -39 -7 -64 -14z"/>
<path d="M3495 9677 c-38 -24 -97 -61 -130 -83 -33 -22 -93 -60 -133 -84 -41
-24 -90 -63 -113 -91 -22 -26 -48 -50 -57 -53 -9 -3 -50 -14 -91 -26 l-74 -22
6 -58 c8 -68 25 -56 -181 -120 -128 -40 -134 -41 -147 -23 -8 10 -15 21 -15
26 0 14 -36 6 -78 -18 -24 -13 -84 -43 -134 -66 -51 -22 -127 -61 -169 -85
-43 -25 -119 -63 -171 -85 -106 -46 -165 -83 -173 -110 -3 -10 -9 -69 -14
-131 -8 -123 4 -90 -139 -386 -19 -40 -33 -75 -30 -77 16 -16 175 3 338 39
l55 12 1 92 c0 57 5 97 12 104 7 7 41 14 75 16 51 3 72 0 107 -18 70 -36 150
-60 229 -70 47 -6 82 -17 95 -28 12 -10 53 -31 93 -46 l72 -28 -6 -45 c-6 -45
-6 -45 60 -109 37 -35 70 -76 73 -90 6 -25 9 -26 52 -20 25 3 60 6 78 6 l34 0
0 110 c0 123 10 142 54 101 12 -11 32 -21 43 -21 25 0 82 -20 191 -67 58 -24
86 -32 91 -25 4 7 13 46 20 88 12 64 12 77 0 90 -19 18 -109 75 -180 113 -31
16 -59 38 -63 47 -4 10 -1 40 6 67 12 47 11 50 -11 66 -28 21 -26 42 14 176
14 44 22 90 19 101 -7 25 52 159 92 211 30 40 53 42 172 13 112 -27 122 -26
155 14 34 44 34 63 -4 137 -35 70 -42 50 64 168 31 35 57 69 57 75 0 6 -14 23
-32 38 -31 25 -32 28 -20 60 6 19 12 41 12 49 0 17 -103 109 -122 109 -7 0
-44 -20 -83 -43z"/>
<path d="M3705 8479 c-87 -14 -94 -18 -129 -73 -19 -29 -50 -70 -70 -89 -42
-42 -43 -52 -14 -111 l22 -45 -38 -55 -37 -54 12 -61 c6 -33 9 -71 5 -84 -3
-14 -29 -42 -58 -64 -41 -31 -58 -52 -73 -92 -13 -35 -52 -89 -120 -167 l-101
-116 9 -66 c7 -46 17 -76 33 -95 13 -16 24 -38 24 -50 0 -61 73 -260 111 -301
5 -5 27 8 53 32 77 71 113 77 461 77 l300 0 125 -32 c140 -37 186 -40 279 -18
103 25 122 38 158 108 31 60 94 152 131 191 18 18 17 21 -15 81 -18 34 -40 68
-50 76 -10 9 -62 35 -116 59 -86 39 -101 49 -126 89 -42 67 -184 318 -215 379
-29 57 -54 73 -131 87 -22 4 -71 23 -108 42 -74 37 -83 50 -123 176 l-17 55
26 46 c14 26 24 53 21 60 -10 26 -122 33 -229 15z"/>
<path d="M2103 8413 c-22 -4 -23 -8 -23 -110 0 -96 -2 -105 -20 -110 -23 -6
-29 -34 -33 -158 l-2 -90 29 -3 c20 -3 36 4 55 21 17 17 44 28 76 33 89 12 92
15 100 88 7 65 8 66 44 76 20 5 52 10 72 10 32 0 40 -6 81 -64 40 -55 51 -64
86 -70 22 -3 75 -24 117 -46 116 -62 121 -63 139 -34 15 22 15 27 -3 62 -10
20 -46 59 -79 85 -46 37 -62 57 -67 83 -5 31 -13 38 -73 67 -50 24 -68 38 -70
55 -2 12 -6 22 -10 23 -4 0 -52 4 -107 8 -86 6 -111 12 -177 44 -74 36 -88 39
-135 30z"/>
<path d="M3050 8133 c1 -27 7 -79 14 -116 l13 -68 -46 6 c-86 12 -85 12 -103
-25 -10 -19 -19 -39 -21 -44 -1 -4 -39 6 -82 24 -151 61 -230 88 -280 94 -49
7 -51 9 -80 64 -29 56 -31 57 -76 60 -31 2 -48 -1 -51 -10 -6 -14 6 -112 17
-146 5 -17 -1 -24 -26 -37 -30 -16 -33 -16 -61 5 -29 22 -31 22 -76 5 -69 -25
-180 -93 -198 -120 -14 -22 -14 -27 10 -72 16 -29 26 -64 26 -89 0 -23 14
-102 30 -175 48 -212 46 -207 80 -213 17 -3 43 -9 60 -12 26 -5 33 -14 68
-107 l40 -102 40 -3 c34 -3 43 1 57 22 13 20 21 23 39 17 12 -5 73 -19 136
-31 63 -12 135 -31 160 -43 38 -19 45 -26 43 -49 -1 -15 -9 -40 -17 -55 -8
-16 -21 -38 -27 -51 -23 -43 4 -42 80 3 59 34 77 50 85 77 l11 33 126 0 126 0
15 34 c15 34 14 37 -35 140 -36 76 -52 121 -55 161 -2 30 -11 63 -19 72 -37
42 31 188 147 315 44 49 83 99 87 113 3 14 18 43 33 65 52 77 72 123 60 145
-13 24 -101 69 -195 100 -38 13 -87 31 -107 41 -21 11 -40 19 -43 19 -3 0 -5
-21 -5 -47z"/>
<path d="M1830 8157 c-55 -6 -99 -16 -105 -23 -6 -8 -37 -14 -78 -16 -38 -1
-71 -5 -75 -8 -20 -15 -92 -207 -92 -246 0 -22 22 -34 68 -34 25 0 29 -22 7
-40 -8 -7 -15 -24 -15 -37 0 -20 4 -24 18 -18 138 56 208 65 305 40 77 -20 75
-20 86 22 9 32 8 41 -13 68 l-24 31 23 26 c22 25 65 173 65 223 0 29 -6 29
-170 12z"/>
<path d="M1640 7724 c-64 -13 -79 -20 -103 -50 -25 -30 -34 -34 -78 -34 -28 0
-59 -5 -69 -10 -20 -11 -144 -163 -211 -258 -44 -62 -46 -78 -23 -146 15 -44
15 -48 -2 -68 -11 -11 -49 -40 -86 -64 -38 -24 -68 -50 -68 -57 0 -30 35 -45
115 -49 57 -3 89 -10 110 -24 25 -16 48 -19 145 -19 l115 0 0 -40 c0 -40 0
-40 -52 -54 -45 -12 -53 -18 -53 -37 0 -23 -11 -28 -90 -36 -22 -3 -25 -7 -21
-38 5 -59 16 -70 70 -70 26 0 76 -3 110 -6 l61 -7 0 -33 c0 -36 22 -64 49 -64
10 0 38 7 61 15 52 18 50 18 50 1 0 -7 -25 -30 -55 -50 -31 -20 -61 -48 -68
-63 -10 -22 -8 -28 12 -44 13 -11 29 -19 35 -19 7 0 48 17 92 39 58 28 88 37
112 33 17 -2 43 -1 56 2 56 14 135 131 122 181 -3 12 -26 50 -51 84 l-45 61
43 0 c51 0 58 -5 126 -88 69 -85 91 -131 91 -189 0 -41 8 -63 36 -101 1 -2 20
6 43 17 47 24 71 27 71 7 0 -8 8 -24 18 -36 15 -18 24 -21 55 -15 38 7 38 8
32 46 -6 37 -6 38 33 49 22 5 61 14 86 19 26 5 49 11 52 14 3 3 15 45 25 94
16 68 27 95 50 118 24 25 29 39 29 78 0 43 3 49 39 73 37 24 39 27 29 56 -6
16 -16 31 -22 33 -6 2 -55 17 -108 34 -54 17 -107 31 -118 31 -11 0 -44 -13
-73 -29 -45 -25 -59 -28 -108 -24 l-56 5 -13 57 c-24 107 -34 123 -107 161
l-67 35 -18 70 c-10 39 -25 115 -33 170 -9 55 -23 123 -31 152 l-14 52 -68 21
c-90 28 -172 32 -262 14z"/>
<path d="M4803 7272 c-31 -5 -57 -45 -94 -142 -39 -101 -75 -144 -137 -164
-65 -21 -92 -22 -292 -13 -173 9 -393 34 -500 58 -40 9 -90 10 -188 3 l-132
-9 23 -35 c13 -19 40 -61 60 -92 31 -48 42 -58 65 -58 16 0 32 -8 39 -19 7
-11 45 -44 85 -74 79 -58 169 -147 201 -197 19 -30 19 -32 2 -71 -10 -22 -29
-54 -42 -71 -15 -20 -23 -46 -23 -70 0 -53 31 -158 46 -158 7 0 19 -8 26 -18
7 -10 58 -44 113 -76 55 -32 103 -61 107 -65 4 -4 -5 -23 -21 -42 -21 -25 -27
-40 -20 -50 15 -23 10 -81 -11 -128 -25 -54 -50 -160 -50 -209 0 -52 22 -79
71 -87 34 -6 46 -3 80 20 34 24 44 27 81 19 24 -4 93 -8 153 -9 l110 0 63 -46
c35 -26 84 -52 110 -58 26 -7 58 -18 72 -26 14 -8 42 -23 62 -35 52 -28 266
-79 363 -86 49 -4 133 0 214 10 126 15 139 19 192 54 32 20 63 47 68 59 27 58
-34 223 -129 353 -83 112 -87 121 -110 209 -25 97 -80 197 -260 466 -125 188
-165 255 -180 305 -5 14 -29 84 -55 155 -25 72 -65 190 -89 262 -23 73 -44
134 -47 136 -2 1 -14 1 -26 -1z"/>
<path d="M3176 6943 c-26 -13 -39 -14 -95 -3 -36 7 -79 10 -96 9 -25 -3 -30
-9 -33 -35 -3 -26 -11 -34 -55 -56 -29 -14 -94 -58 -144 -97 l-93 -72 0 -72
c0 -44 5 -80 13 -89 6 -8 40 -34 75 -57 34 -23 62 -46 62 -52 0 -23 30 -17 88
17 62 37 62 37 62 84 0 43 2 47 36 63 60 29 144 98 176 146 17 25 49 65 72 89
l40 42 -18 33 c-22 37 -46 67 -55 67 -3 -1 -19 -8 -35 -17z"/>
<path d="M3357 6921 c-19 -21 -53 -69 -75 -107 -51 -87 -88 -126 -183 -196
-68 -51 -78 -62 -97 -116 -30 -82 -70 -132 -130 -165 -53 -29 -72 -29 -72 0 0
8 -16 37 -35 63 -32 43 -39 48 -87 53 -29 4 -81 7 -115 7 -68 0 -83 -12 -83
-64 0 -20 8 -29 34 -40 33 -14 75 -65 111 -136 23 -44 31 -50 81 -50 39 0 40
1 50 43 7 32 14 43 31 45 19 3 22 -3 28 -55 4 -32 7 -61 8 -66 1 -4 24 11 51
33 26 22 54 40 60 40 7 0 23 -11 36 -25 13 -14 38 -27 56 -31 18 -3 38 -12 45
-20 18 -22 36 -17 95 31 30 25 60 45 65 45 6 0 22 9 36 20 32 25 104 27 127 4
10 -9 16 -33 16 -61 0 -39 5 -50 35 -79 65 -61 40 -128 -79 -215 -31 -23 -50
-29 -91 -29 -65 0 -146 24 -170 50 -10 11 -23 19 -29 19 -6 -1 -40 -33 -76
-71 l-65 -70 28 -23 c15 -13 27 -27 27 -31 0 -4 -49 -4 -109 0 l-110 6 9 -27
c32 -107 69 -176 102 -194 15 -8 31 -7 65 6 24 9 46 15 49 12 3 -3 -9 -25 -26
-49 -30 -43 -31 -45 -17 -85 7 -22 40 -77 71 -122 42 -60 63 -81 79 -81 12 1
77 11 145 23 l123 23 47 -28 c26 -15 54 -33 63 -40 14 -9 36 3 130 74 121 90
235 162 309 195 l46 20 59 179 c45 135 59 191 58 229 -1 28 -2 69 -3 92 0 38
-4 44 -47 76 -27 19 -69 44 -95 55 -59 26 -73 53 -94 177 l-17 96 32 62 32 61
-58 59 c-69 71 -209 192 -264 228 -34 23 -132 141 -146 177 -9 21 -30 13 -66
-27z"/>
<path d="M3317 6216 c-20 -8 -53 -26 -72 -40 -19 -15 -62 -40 -96 -56 -104
-49 -107 -72 -23 -181 l45 -59 75 0 c85 0 135 20 177 69 49 59 43 118 -14 136
-13 5 -19 16 -19 37 0 34 -20 108 -29 108 -3 -1 -23 -7 -44 -14z"/>
<path d="M2878 6130 c-46 -45 -48 -50 -48 -103 0 -30 8 -78 17 -107 14 -43 23
-55 50 -67 40 -16 57 -9 102 43 30 34 32 40 26 84 -5 35 -2 56 9 78 24 46 20
69 -11 77 -14 3 -38 15 -51 26 -14 10 -30 19 -36 18 -6 0 -32 -22 -58 -49z"/>
<path d="M7300 5783 c-14 -2 -42 -9 -62 -14 -35 -9 -38 -12 -38 -47 0 -51 7
-58 74 -73 l59 -13 33 40 c19 21 34 44 34 51 0 11 -62 65 -71 62 -2 -1 -15 -4
-29 -6z"/>
<path d="M2630 5425 c-30 -13 -69 -24 -87 -25 -106 -1 -114 -68 -15 -122 18
-9 32 -24 32 -33 0 -20 -28 -75 -38 -75 -5 0 -18 20 -30 45 -28 58 -61 79
-109 70 -87 -16 -99 -32 -133 -175 -28 -121 -29 -117 38 -130 31 -6 67 -13 79
-15 28 -6 53 -83 53 -164 1 -98 14 -142 55 -179 20 -18 44 -32 53 -30 25 5 26
69 3 173 -11 49 -18 91 -16 93 2 2 13 1 24 -3 14 -4 26 -24 38 -63 15 -48 18
-92 17 -267 -1 -116 -7 -232 -13 -259 l-12 -49 44 -41 c24 -23 56 -60 71 -83
24 -36 33 -42 74 -47 38 -5 56 -2 96 19 27 14 62 25 77 25 36 0 55 20 64 67
12 68 19 73 91 73 71 0 73 -1 90 -85 l9 -40 113 -6 c62 -3 114 -8 115 -10 2
-2 17 -40 33 -84 39 -102 65 -118 192 -119 l84 -1 29 35 c15 19 34 56 40 81
11 43 10 56 -17 150 -28 98 -31 104 -58 107 -19 2 -45 -7 -80 -29 -42 -27 -63
-33 -121 -37 l-70 -3 -22 34 c-38 61 -73 155 -73 199 0 50 -7 64 -34 69 -11 2
-29 20 -40 39 -19 31 -21 51 -21 180 1 121 4 153 21 195 24 62 44 66 155 35
62 -18 87 -21 125 -14 43 8 49 13 57 41 8 27 5 36 -19 67 -16 20 -60 60 -97
88 -84 62 -115 67 -258 43 -142 -23 -182 -22 -229 8 -27 18 -44 41 -60 81 -27
64 -63 87 -107 67 -31 -14 -46 -4 -74 51 -26 51 -50 78 -69 78 -8 -1 -40 -12
-70 -25z"/>
<path d="M4055 5441 c-87 -21 -227 -93 -389 -199 -77 -51 -144 -92 -149 -92
-15 0 22 -38 75 -77 47 -34 48 -36 48 -87 0 -57 -10 -71 -63 -94 -21 -9 -27
-17 -22 -30 3 -9 15 -62 26 -116 24 -119 31 -134 67 -142 57 -12 64 -17 93
-56 39 -55 39 -104 -1 -175 -36 -64 -37 -78 -6 -98 27 -18 69 -106 86 -180 16
-70 29 -92 59 -104 20 -8 162 -24 226 -26 15 0 74 127 73 155 -1 14 3 34 9 45
8 15 8 28 -2 53 -14 31 -16 32 -73 32 -88 0 -89 3 -63 168 12 75 26 149 31
164 6 19 5 30 -6 39 -28 23 -15 46 41 78 41 23 55 37 55 54 0 33 116 120 245
183 61 30 116 54 123 54 7 0 28 -11 46 -25 45 -34 68 -32 99 12 19 27 24 41
17 54 -8 14 6 32 81 100 50 46 100 96 110 111 l20 27 -73 40 c-40 21 -99 56
-131 76 -55 35 -66 38 -165 45 -172 13 -454 19 -487 11z"/>
<path d="M8254 5352 c-31 -21 -18 -72 19 -72 13 0 28 -5 34 -11 7 -7 19 -9 27
-6 20 8 21 53 1 61 -8 3 -15 12 -15 21 0 16 -45 21 -66 7z"/>
<path d="M5660 5269 c-78 -28 -269 -59 -359 -59 -42 0 -107 7 -146 15 -38 9
-101 15 -140 14 -67 -2 -72 -4 -125 -48 -79 -65 -130 -127 -130 -159 0 -21
-17 -42 -71 -91 l-72 -65 -46 18 c-84 33 -89 32 -186 -32 -50 -32 -116 -87
-149 -123 -32 -35 -73 -71 -90 -79 -21 -11 -30 -22 -28 -35 5 -42 4 -52 -17
-130 -12 -44 -23 -109 -24 -145 l-2 -65 68 -3 c64 -3 69 -5 87 -35 11 -18 20
-48 20 -68 0 -46 -32 -151 -63 -204 -24 -43 -83 -89 -104 -81 -31 12 -43 -5
-37 -52 3 -26 10 -59 15 -73 16 -41 96 -95 177 -119 72 -21 74 -22 97 -72 18
-39 21 -56 14 -76 -12 -32 10 -58 62 -72 21 -6 41 -15 44 -20 15 -25 33 -7 39
38 17 121 17 122 47 138 l30 15 -25 30 c-25 29 -25 31 -10 67 8 20 31 54 51
74 34 34 37 36 58 22 23 -15 27 -14 124 72 1 1 -8 18 -22 36 -14 18 -41 65
-61 105 -20 40 -49 87 -66 106 -37 42 -39 85 -7 147 21 42 25 45 67 48 45 3
46 2 85 -55 56 -81 119 -118 199 -118 34 1 75 4 93 9 26 7 33 5 43 -13 6 -12
12 -47 13 -78 2 -54 0 -58 -32 -80 -24 -16 -48 -23 -81 -23 -34 0 -50 -4 -54
-16 -10 -25 -8 -30 29 -74 57 -69 58 -62 -13 -303 -29 -100 -44 -113 -132
-124 -26 -3 -53 -8 -58 -12 -13 -8 -38 -98 -30 -106 9 -9 249 -23 318 -18 51
4 71 10 91 30 26 23 28 24 51 9 23 -15 28 -15 61 -1 41 17 45 26 22 45 -27 23
10 33 150 42 l40 3 5 -50 5 -50 115 1 115 0 9 40 c18 84 70 224 122 326 61
121 68 167 33 205 l-22 22 -59 -49 c-33 -28 -66 -50 -73 -50 -33 0 -45 42 -45
160 0 130 13 241 64 540 47 279 55 453 27 612 -18 105 -36 159 -51 157 -3 0
-30 -9 -60 -20z"/>
<path d="M3322 4928 c-5 -7 -15 -59 -22 -116 -10 -81 -10 -119 0 -181 7 -43
16 -84 21 -92 13 -22 125 -18 174 6 66 33 73 56 53 174 -10 55 -25 117 -35
138 -16 33 -26 41 -83 60 -77 25 -94 27 -108 11z"/>
<path d="M3505 4521 c-89 -46 -90 -48 -107 -100 -17 -52 -17 -53 8 -116 14
-35 32 -69 39 -75 14 -11 132 3 164 20 9 4 45 57 79 117 l63 108 -51 48 c-36
33 -59 47 -78 46 -15 0 -67 -22 -117 -48z"/>
<path d="M4653 4267 c-56 -61 -55 -87 8 -154 27 -29 61 -78 74 -108 13 -30 36
-62 50 -71 39 -26 31 -71 -18 -104 -21 -14 -49 -44 -63 -67 l-24 -42 -27 25
-27 25 -18 -23 c-36 -48 -43 -78 -24 -111 16 -29 16 -31 -8 -56 -24 -26 -26
-37 -30 -151 l-1 -55 80 -3 80 -3 33 56 c36 59 61 73 105 56 25 -10 32 -7 65
23 35 33 37 39 43 113 4 43 10 97 14 120 7 38 4 49 -29 104 -40 68 -45 107
-17 133 17 15 24 16 54 5 32 -11 37 -10 81 20 51 35 55 51 26 98 l-20 33 -47
-19 c-27 -10 -52 -17 -58 -15 -5 2 -30 8 -55 14 -33 9 -63 30 -120 84 -107
102 -103 100 -127 73z"/>
<path d="M3031 4145 c-12 -49 -22 -57 -100 -75 -30 -7 -69 -21 -87 -32 -19
-11 -61 -21 -103 -25 -70 -6 -71 -6 -77 -38 -12 -67 -9 -69 99 -76 54 -4 100
-9 102 -11 3 -2 -2 -14 -11 -26 -11 -16 -25 -22 -55 -22 -29 0 -39 -4 -39 -16
0 -20 17 -54 43 -81 27 -30 18 -37 -26 -18 -64 26 -80 21 -187 -66 -55 -45
-100 -87 -100 -95 0 -24 33 -84 49 -88 9 -2 38 -7 65 -11 26 -4 44 -10 40 -14
-5 -5 -47 -20 -94 -34 -125 -38 -177 -102 -108 -132 18 -8 24 -21 30 -65 9
-73 24 -83 108 -76 126 12 126 12 149 69 11 29 23 64 27 80 5 23 11 27 43 27
20 0 53 -3 73 -6 36 -6 37 -8 35 -47 l-2 -41 63 -17 c80 -21 97 -37 93 -88 -3
-51 -1 -52 204 -56 l165 -3 0 23 c0 20 7 25 35 31 50 9 85 -2 85 -27 0 -21 61
-55 84 -46 12 5 76 185 76 214 0 10 -9 46 -19 81 -25 80 -19 100 81 259 56 89
87 128 134 165 62 50 104 109 104 146 0 17 -11 24 -52 37 -28 8 -68 15 -87 15
-32 0 -40 -6 -69 -49 -18 -26 -44 -58 -57 -71 l-26 -24 -87 18 c-48 10 -109
25 -137 35 -44 14 -51 21 -67 61 -9 25 -20 58 -23 73 -8 38 -52 55 -174 71
l-96 12 -6 43 c-6 47 -20 61 -60 61 -23 0 -28 -6 -38 -45z"/>
<path d="M3888 3692 c-99 -99 -116 -125 -149 -220 -18 -51 -18 -57 -2 -114 21
-75 9 -171 -32 -268 -30 -71 -32 -113 -10 -199 10 -38 26 -66 54 -95 35 -36
41 -50 55 -125 9 -46 16 -96 16 -111 0 -29 15 -40 56 -40 29 0 32 -29 8 -75
-17 -33 -12 -129 8 -141 18 -11 148 -33 162 -28 7 3 24 28 37 55 27 59 20 69
-48 69 l-43 0 0 55 c0 40 -4 57 -15 61 -25 10 -17 20 28 33 23 7 50 14 59 17
13 4 20 -4 28 -34 9 -37 15 -42 86 -72 72 -32 81 -33 180 -31 l104 2 0 -28 c0
-16 -7 -38 -15 -49 -20 -26 -19 -48 3 -67 26 -23 36 -21 76 13 20 18 37 26 41
20 3 -5 17 -10 31 -10 27 0 29 -8 12 -45 -10 -22 -9 -32 6 -59 27 -50 56 -60
118 -38 88 30 93 43 95 253 2 148 0 181 -12 185 -8 3 -39 -6 -70 -20 -54 -24
-55 -26 -55 -66 0 -68 -12 -80 -80 -80 -56 0 -60 2 -60 23 0 38 11 66 29 72 9
3 31 19 50 35 32 30 33 31 16 56 -20 30 -18 33 29 44 30 7 38 5 46 -11 9 -17
13 -17 51 -4 22 8 62 13 88 11 47 -3 51 -1 83 38 19 22 40 51 46 63 6 11 47
41 89 66 60 34 217 140 241 162 7 6 -37 81 -58 100 -13 12 -42 22 -73 25 -55
5 -58 9 -72 92 -7 42 11 38 -243 58 -97 7 -147 16 -180 31 -29 12 -92 26 -164
34 -98 11 -125 18 -171 44 -77 44 -80 49 -66 109 16 66 11 71 -112 132 -74 38
-107 61 -143 102 -25 29 -46 56 -46 60 0 18 -20 2 -112 -90z"/>
<path d="M5330 3351 c0 -34 -22 -51 -69 -51 -17 0 -42 -11 -60 -26 -26 -21
-31 -33 -31 -69 l0 -43 63 -9 62 -8 30 -77 30 -78 45 0 c74 -1 90 -8 90 -44 0
-38 15 -65 29 -51 5 6 25 62 44 125 25 82 32 120 26 132 -6 12 -6 18 0 18 6 0
16 -18 22 -40 7 -22 18 -40 24 -40 14 0 61 173 51 188 -3 6 -55 13 -115 17
-109 7 -110 7 -113 33 -2 22 -10 28 -43 34 -22 4 -50 10 -62 13 -20 5 -23 1
-23 -24z"/>
<path d="M2311 3154 c-45 -60 -81 -112 -81 -115 0 -3 24 -29 54 -57 30 -27 64
-69 76 -92 20 -38 20 -43 6 -66 -9 -13 -40 -41 -69 -63 -51 -39 -53 -42 -65
-111 -7 -39 -12 -115 -12 -170 l0 -99 -50 5 -50 5 0 -35 c0 -20 7 -57 16 -83
l17 -48 -48 -40 c-26 -22 -91 -82 -144 -133 l-96 -93 37 -35 c21 -19 48 -34
61 -34 64 0 195 58 255 113 30 27 29 75 -3 121 -27 40 -32 54 -12 38 6 -5 37
-17 67 -26 81 -23 82 -24 63 -77 -16 -44 -16 -47 11 -121 30 -81 42 -92 114
-104 38 -6 39 -5 100 73 35 43 77 98 94 123 l32 45 9 -45 c5 -25 14 -48 21
-52 6 -4 46 -8 88 -8 l77 0 21 48 c12 26 28 69 37 96 16 47 17 49 111 92 52
24 97 44 99 44 18 0 -15 -73 -57 -128 -28 -36 -50 -75 -50 -88 0 -12 12 -36
26 -53 l25 -31 157 7 c125 5 165 10 195 25 l37 18 0 70 c0 78 -23 151 -64 205
l-26 34 36 7 c19 3 50 2 67 -3 29 -8 33 -14 45 -68 8 -33 23 -93 35 -134 21
-74 21 -74 74 -98 39 -18 62 -23 86 -18 42 10 78 28 101 54 18 19 18 24 2 135
-15 104 -24 150 -71 376 -9 41 -22 107 -30 146 -9 49 -24 86 -47 118 -21 31
-37 68 -43 104 -7 38 -15 57 -25 58 -8 1 -25 2 -37 3 -13 0 -23 7 -23 16 0 17
-30 35 -59 35 -15 0 -26 -11 -38 -41 l-16 -42 -96 7 c-104 8 -281 40 -321 59
-22 11 -25 20 -28 70 -3 52 -6 60 -33 76 -38 23 -192 57 -196 44 -2 -6 -14
-30 -26 -54 -29 -57 -68 -71 -191 -67 l-90 3 -37 84 -37 84 -81 -109z m612
-159 c12 -26 25 -36 57 -45 l40 -11 0 -88 0 -88 -52 -17 c-29 -9 -99 -19 -155
-22 l-103 -7 -15 36 c-16 39 -40 51 -91 45 l-29 -3 0 84 c0 85 0 85 29 92 15
4 36 15 46 24 21 19 94 32 191 34 65 1 65 1 82 -34z"/>
<path d="M2672 2975 c-12 -14 -33 -25 -46 -25 -21 0 -24 -6 -29 -52 -7 -59 3
-78 42 -78 49 0 66 -11 83 -51 13 -31 21 -39 35 -35 10 3 59 10 108 17 50 6
97 15 106 19 8 5 21 32 27 61 14 59 8 72 -42 89 -22 7 -38 22 -50 46 -15 32
-20 35 -44 30 -103 -25 -115 -26 -138 -11 -29 19 -26 19 -52 -10z"/>
<path d="M5275 2919 c-33 -22 -69 -44 -81 -49 -53 -22 -168 -105 -183 -133 -9
-17 -28 -43 -42 -57 -44 -43 -62 -88 -49 -119 l11 -28 187 35 187 34 57 56
c33 32 60 68 64 84 3 16 17 56 30 88 13 33 24 66 24 73 0 10 -116 57 -141 57
-2 0 -31 -18 -64 -41z"/>
<path d="M2475 828 c-164 -40 -258 -60 -310 -64 -103 -8 -217 -49 -298 -107
-27 -18 -28 -23 -22 -66 8 -60 40 -158 65 -198 15 -26 27 -33 50 -33 41 0 360
46 500 72 101 19 117 25 142 52 35 39 108 186 108 219 0 29 -58 85 -119 117
-44 22 -56 23 -116 8z"/>
<path d="M1910 275 l0 -35 50 0 50 0 0 35 0 35 -50 0 -50 0 0 -35z"/>
</g>
</svg>
